<svg width="32" height="32" viewBox="0 0 32 32" fill="none" xmlns="http://www.w3.org/2000/svg">
<g id="brush_FILL0_wght300_GRAD0_opsz24 1">
<g id="Vector">
<path d="M8.25643 27.0768C7.49359 27.0768 6.73921 26.9093 5.9933 26.5743C5.24741 26.2392 4.62574 25.7914 4.1283 25.2307C4.6377 25.0854 5.11974 24.7764 5.57443 24.3038C6.02912 23.8311 6.25647 23.1999 6.25647 22.4102C6.25647 21.4786 6.57911 20.6901 7.2244 20.0449C7.86969 19.3996 8.65814 19.0769 9.58977 19.0769C10.5214 19.0769 11.3098 19.3996 11.9551 20.0449C12.6004 20.6901 12.923 21.4786 12.923 22.4102C12.923 23.6935 12.4661 24.7921 11.5522 25.706C10.6383 26.6199 9.53974 27.0768 8.25643 27.0768ZM8.25643 25.0769C8.98977 25.0769 9.61754 24.8157 10.1398 24.2935C10.662 23.7713 10.9231 23.1435 10.9231 22.4102C10.9231 22.0324 10.7953 21.7157 10.5398 21.4602C10.2842 21.2046 9.96754 21.0769 9.58977 21.0769C9.21199 21.0769 8.89532 21.2046 8.63977 21.4602C8.38421 21.7157 8.25643 22.0324 8.25643 22.4102C8.25643 22.9213 8.19532 23.388 8.0731 23.8102C7.95088 24.2324 7.78977 24.6324 7.58977 25.0102C7.70088 25.0546 7.81199 25.0769 7.9231 25.0769H8.25643ZM15.3333 19.6666L12.359 16.6923L23.7795 5.27182C24.0239 5.02737 24.3295 4.8996 24.6961 4.88848C25.0628 4.87737 25.3795 5.00515 25.6461 5.27182L26.7538 6.37945C27.0205 6.64612 27.1538 6.95723 27.1538 7.31278C27.1538 7.66834 27.0205 7.97945 26.7538 8.24612L15.3333 19.6666Z" fill="black"/>
<path d="M8.25643 27.0768C7.49359 27.0768 6.73921 26.9093 5.9933 26.5743C5.24741 26.2392 4.62574 25.7914 4.1283 25.2307C4.6377 25.0854 5.11974 24.7764 5.57443 24.3038C6.02912 23.8311 6.25647 23.1999 6.25647 22.4102C6.25647 21.4786 6.57911 20.6901 7.2244 20.0449C7.86969 19.3996 8.65814 19.0769 9.58977 19.0769C10.5214 19.0769 11.3098 19.3996 11.9551 20.0449C12.6004 20.6901 12.923 21.4786 12.923 22.4102C12.923 23.6935 12.4661 24.7921 11.5522 25.706C10.6383 26.6199 9.53974 27.0768 8.25643 27.0768ZM8.25643 25.0769C8.98977 25.0769 9.61754 24.8157 10.1398 24.2935C10.662 23.7713 10.9231 23.1435 10.9231 22.4102C10.9231 22.0324 10.7953 21.7157 10.5398 21.4602C10.2842 21.2046 9.96754 21.0769 9.58977 21.0769C9.21199 21.0769 8.89532 21.2046 8.63977 21.4602C8.38421 21.7157 8.25643 22.0324 8.25643 22.4102C8.25643 22.9213 8.19532 23.388 8.0731 23.8102C7.95088 24.2324 7.78977 24.6324 7.58977 25.0102C7.70088 25.0546 7.81199 25.0769 7.9231 25.0769H8.25643ZM15.3333 19.6666L12.359 16.6923L23.7795 5.27182C24.0239 5.02737 24.3295 4.8996 24.6961 4.88848C25.0628 4.87737 25.3795 5.00515 25.6461 5.27182L26.7538 6.37945C27.0205 6.64612 27.1538 6.95723 27.1538 7.31278C27.1538 7.66834 27.0205 7.97945 26.7538 8.24612L15.3333 19.6666Z" fill="url(#paint0_linear_23_90)"/>
</g>
</g>
<defs>
<linearGradient id="paint0_linear_23_90" x1="4.1283" y1="2.62363" x2="31.1176" y2="4.97598" gradientUnits="userSpaceOnUse">
<stop stop-color="#0677E1"/>
<stop offset="1" stop-color="#8C1FE2"/>
</linearGradient>
</defs>
</svg>
