<svg width="32" height="32" viewBox="0 0 32 32" fill="none" xmlns="http://www.w3.org/2000/svg">
<g id="design_services_FILL0_wght300_GRAD0_opsz24 (1) 1">
<path id="Vector" d="M24.4025 12.5205L19.4667 7.59748L21.3154 5.76158C21.7838 5.2932 22.3538 5.05901 23.0256 5.05901C23.6974 5.05901 24.2632 5.2932 24.723 5.76158L26.2384 7.28974C26.6982 7.74956 26.9281 8.31538 26.9281 8.98718C26.9281 9.65895 26.6982 10.2248 26.2384 10.6846L24.4025 12.5205ZM4.57698 27.4102V22.4743L10.6026 16.4487L3.56927 9.36151L9.12564 3.80518L16.2051 10.8923L19.4667 7.59748L24.4025 12.5205L21.141 15.7948L28.1743 22.8948L22.6385 28.4307L15.5385 21.364L9.51281 27.4102H4.57698ZM12.0282 15.0359L14.7795 12.2846L12.7051 10.2102L11.1179 11.7769L9.71284 10.3718L11.2795 8.78461L9.10514 6.63074L6.37434 9.38204L12.0282 15.0359ZM22.6051 25.6128L25.3564 22.8615L23.182 20.7076L21.6154 22.2743L20.1898 20.8692L21.7769 19.282L19.682 17.2076L16.9307 19.9589L22.6051 25.6128ZM6.57691 25.4102H8.66154L21.5718 12.5205L19.4667 10.4153L6.57691 23.3256V25.4102Z" fill="url(#paint0_linear_23_94)"/>
</g>
<defs>
<linearGradient id="paint0_linear_23_94" x1="3.56927" y1="1.29237" x2="32.4259" y2="3.71408" gradientUnits="userSpaceOnUse">
<stop stop-color="#0677E1"/>
<stop offset="1" stop-color="#8C1FE2"/>
</linearGradient>
</defs>
</svg>
