<svg width="32" height="32" viewBox="0 0 32 32" fill="none" xmlns="http://www.w3.org/2000/svg">
<g id="phone_iphone_FILL0_wght300_GRAD0_opsz24 1">
<path id="Vector" d="M9.74364 29.9999C9.07013 29.9999 8.50004 29.7666 8.03337 29.2999C7.56671 28.8333 7.33337 28.2632 7.33337 27.5897V4.41027C7.33337 3.73676 7.56671 3.16667 8.03337 2.7C8.50004 2.23333 9.07013 2 9.74364 2H22.2564C22.9299 2 23.5 2.23333 23.9666 2.7C24.4333 3.16667 24.6666 3.73676 24.6666 4.41027V27.5897C24.6666 28.2632 24.4333 28.8333 23.9666 29.2999C23.5 29.7666 22.9299 29.9999 22.2564 29.9999H9.74364V29.9999ZM9.33334 23.6923V27.5897C9.33334 27.6923 9.37607 27.7863 9.46154 27.8718C9.54703 27.9573 9.64106 28 9.74364 28H22.2564C22.359 28 22.453 27.9573 22.5385 27.8718C22.6239 27.7863 22.6667 27.6923 22.6667 27.5897V23.6923H9.33334ZM16 27.0256C16.3265 27.0256 16.6047 26.9107 16.8346 26.6807C17.0645 26.4508 17.1795 26.1726 17.1795 25.8461C17.1795 25.5196 17.0645 25.2414 16.8346 25.0115C16.6047 24.7816 16.3265 24.6666 16 24.6666C15.6735 24.6666 15.3953 24.7816 15.1654 25.0115C14.9355 25.2414 14.8205 25.5196 14.8205 25.8461C14.8205 26.1726 14.9355 26.4508 15.1654 26.6807C15.3953 26.9106 15.6735 27.0256 16 27.0256V27.0256ZM9.33334 21.6923H22.6667V7.6666H9.33334V21.6923ZM9.33334 5.66667H22.6667V4.41027C22.6667 4.30769 22.6239 4.21366 22.5385 4.12817C22.453 4.0427 22.359 3.99997 22.2564 3.99997H9.74364C9.64106 3.99997 9.54703 4.0427 9.46154 4.12817C9.37607 4.21366 9.33334 4.30769 9.33334 4.41027V5.66667Z" fill="url(#paint0_linear_23_86)"/>
</g>
<defs>
<linearGradient id="paint0_linear_23_86" x1="7.33337" y1="-0.857135" x2="27.7497" y2="0.204411" gradientUnits="userSpaceOnUse">
<stop stop-color="#0677E1"/>
<stop offset="1" stop-color="#8C1FE2"/>
</linearGradient>
</defs>
</svg>
