<svg width="32" height="32" viewBox="0 0 32 32" fill="none" xmlns="http://www.w3.org/2000/svg">
<g id="Telegram">
<path id="Vector" fill-rule="evenodd" clip-rule="evenodd" d="M7.71681 18.6928C7.77517 18.7126 7.83408 18.7264 7.89293 18.735C7.95712 18.8859 8.04004 19.081 8.13679 19.3091C8.37289 19.8659 8.69101 20.6191 9.01937 21.4047C9.68904 23.007 10.3645 24.6586 10.5137 25.1314C10.6984 25.7158 10.8936 26.1131 11.1067 26.3844C11.2169 26.5247 11.3443 26.6471 11.4935 26.7399C11.5685 26.7866 11.6478 26.8248 11.7306 26.8534C11.7343 26.8547 11.7379 26.8559 11.7415 26.8571C12.1682 27.0182 12.5572 26.9511 12.8008 26.8691C12.9311 26.8251 13.0366 26.7722 13.1113 26.7292C13.1494 26.7072 13.1816 26.6868 13.2073 26.6695L13.2133 26.6655L16.9816 24.3155L21.3343 27.6526C21.3985 27.7018 21.4685 27.7431 21.5428 27.7755C22.0657 28.0036 22.572 28.0832 23.0484 28.0182C23.5239 27.9532 23.9015 27.7535 24.1825 27.5286C24.4577 27.3084 24.6443 27.0618 24.7605 26.8786C24.8199 26.785 24.8644 26.7022 24.8957 26.6388C24.9116 26.607 24.9243 26.5795 24.934 26.5575L24.9467 26.5284L24.9513 26.517L24.9533 26.5122L24.9543 26.5099L24.9551 26.5078C24.978 26.4506 24.9955 26.3914 25.0075 26.331L28.9812 6.29703C28.9939 6.23296 29.0003 6.16779 29.0003 6.10247C29.0003 5.51579 28.7792 4.95792 28.2595 4.6194C27.8152 4.33007 27.3203 4.31761 27.0075 4.34135C26.6701 4.36696 26.3585 4.45025 26.1493 4.5168C26.0405 4.55144 25.9493 4.58485 25.8836 4.61035C25.8505 4.62316 25.8233 4.63416 25.8032 4.64255L25.788 4.64892L3.50309 13.391L3.50021 13.392C3.48601 13.3972 3.46777 13.404 3.44611 13.4124C3.40296 13.4292 3.34513 13.4528 3.2776 13.4835C3.14589 13.5432 2.96112 13.6364 2.77151 13.7663C2.46859 13.9738 1.77193 14.5419 1.88924 15.4796C1.98283 16.2278 2.49533 16.6872 2.80759 16.9082C2.97904 17.0295 3.14193 17.1162 3.26056 17.1727C3.31559 17.1988 3.42985 17.2452 3.47943 17.2655L3.49195 17.2706L7.71681 18.6928ZM26.568 6.49052L26.5648 6.49188C26.5537 6.49671 26.5425 6.50132 26.5313 6.50575L4.21929 15.2584C4.20764 15.263 4.19591 15.2674 4.18409 15.2715L4.17168 15.2762C4.1574 15.2818 4.13337 15.2915 4.10321 15.3051C4.08611 15.3128 4.06825 15.3214 4.05005 15.3304C4.07507 15.3446 4.09899 15.3567 4.12025 15.3668C4.14067 15.3766 4.15624 15.3832 4.16476 15.3867L8.35493 16.7974C8.43163 16.8232 8.50312 16.8574 8.56875 16.8987L22.4044 8.79935L22.4173 8.79169C22.4275 8.78573 22.4407 8.77808 22.4565 8.76911C22.488 8.75131 22.5313 8.72761 22.5828 8.70141C22.6788 8.65255 22.8324 8.58 23.0055 8.52651C23.126 8.48927 23.4813 8.38435 23.8655 8.50756C24.1025 8.5836 24.348 8.74708 24.5076 9.02401C24.5869 9.1616 24.6292 9.29981 24.6496 9.42633C24.704 9.62564 24.6955 9.82245 24.6529 9.99236C24.5612 10.3584 24.304 10.6439 24.07 10.8622C23.8696 11.0495 21.2757 13.5506 18.7169 16.0196C17.4408 17.2508 16.1777 18.47 15.2337 19.3812L14.6136 19.9799L22.4429 25.9823C22.6224 26.0466 22.7285 26.0434 22.7777 26.0366C22.8363 26.0286 22.8841 26.006 22.9331 25.967C22.9877 25.9232 23.0356 25.864 23.0713 25.8076L23.0728 25.8054L26.9268 6.37473C26.8696 6.38848 26.8117 6.40485 26.756 6.42259C26.6928 6.44268 26.6408 6.46183 26.6063 6.4752C26.5892 6.48183 26.5769 6.48685 26.5703 6.48963L26.568 6.49052ZM15.2863 23.0158L13.7243 21.8182L13.3457 24.2258L15.2863 23.0158ZM12.2914 19.4419L13.8447 17.9423C14.7888 17.031 16.052 15.8118 17.3281 14.5803L18.6248 13.3294L9.93147 18.4184L9.97811 18.5284C10.215 19.0872 10.5346 19.8436 10.8647 20.6335C11.1115 21.224 11.3697 21.8459 11.6048 22.4216L11.9821 20.0211C12.0185 19.7896 12.1316 19.5894 12.2914 19.4419Z" fill="url(#paint0_linear_23_98)"/>
</g>
<defs>
<linearGradient id="paint0_linear_23_98" x1="1.87607" y1="1.91432" x2="33.618" y2="4.96473" gradientUnits="userSpaceOnUse">
<stop stop-color="#0677E1"/>
<stop offset="1" stop-color="#8C1FE2"/>
</linearGradient>
</defs>
</svg>
