<svg width="32" height="32" viewBox="0 0 32 32" fill="none" xmlns="http://www.w3.org/2000/svg">
<path d="M5.74364 25.9999C5.07013 25.9999 4.50004 25.7666 4.03337 25.2999C3.56671 24.8333 3.33337 24.2632 3.33337 23.5897V8.41027C3.33337 7.73676 3.56671 7.16667 4.03337 6.7C4.50004 6.23333 5.07013 6 5.74364 6H26.2564C26.9299 6 27.5 6.23333 27.9666 6.7C28.4333 7.16667 28.6666 7.73676 28.6666 8.41027V23.5897C28.6666 24.2632 28.4333 24.8333 27.9666 25.2999C27.5 25.7666 26.9299 25.9999 26.2564 25.9999H5.74364ZM5.74364 24H19.6667V19.0769H5.33334V23.5897C5.33334 23.6922 5.37607 23.7863 5.46154 23.8718C5.54703 23.9572 5.64106 24 5.74364 24ZM21.6666 24H26.2564C26.359 24 26.453 23.9572 26.5385 23.8718C26.6239 23.7863 26.6667 23.6922 26.6667 23.5897V12.1538H21.6666V24ZM5.33334 17.0769H19.6667V12.1538H5.33334V17.0769Z" fill="url(#paint0_linear_23_28)"/>
<defs>
<linearGradient id="paint0_linear_23_28" x1="3.33337" y1="3.95919" x2="32.9184" y2="7.10675" gradientUnits="userSpaceOnUse">
<stop stop-color="#0677E1"/>
<stop offset="1" stop-color="#8C1FE2"/>
</linearGradient>
</defs>
</svg>
